<?xml version="1.0" encoding="UTF-8"?>
<svg id="Layer_1" xmlns="http://www.w3.org/2000/svg" version="1.1" viewBox="0 0 400 400">
  <!-- Generator: Adobe Illustrator 29.7.1, SVG Export Plug-In . SVG Version: 2.1.1 Build 8)  -->
  <defs>
    <style>
      .st0 {
        fill: none;
      }

      .st0, .st1 {
        display: none;
      }

      .st0, .st1, .st2 {
        stroke: #2e6baf;
        stroke-miterlimit: 10;
        stroke-width: 3px;
      }

      .st1, .st2 {
        fill: #2e6baf;
      }
    </style>
  </defs>
  <path class="st1" d="M180.77,100.32v40.77c-43.24.18-78.36,34.78-79.34,77.83h-41.83c.99-65.68,54.55-118.61,120.45-118.61.24,0,.48,0,.72.01Z"/>
  <path class="st0" d="M341.32,218.92h-40.83c-.98-65.44-54.14-118.22-119.72-118.6v-40.83c88.13.39,159.56,71.45,160.55,159.43Z"/>
  <path class="st1" d="M300.51,220.78c0,66.29-53.55,120.08-119.75,120.45v-40.77h.32c44,0,79.68-35.68,79.68-79.69,0-.63-.01-1.24-.02-1.86h39.74c.02.62.02,1.23.02,1.86Z"/>
  <path class="st2" d="M180.77,260.43v40.04c-43.87-.18-79.36-35.78-79.36-79.69,0-.63.01-1.24.02-1.86h40.06c-.03.62-.04,1.23-.04,1.86,0,21.79,17.58,39.47,39.33,39.65Z"/>
</svg>